<?xml version="1.0" encoding="UTF-8" standalone="no"?>
<svg
   xmlns:dc="http://purl.org/dc/elements/1.1/"
   xmlns:cc="http://creativecommons.org/ns#"
   xmlns:rdf="http://www.w3.org/1999/02/22-rdf-syntax-ns#"
   xmlns:svg="http://www.w3.org/2000/svg"
   xmlns="http://www.w3.org/2000/svg"
   id="svg4"
   class="octicon octicon-mark-github v-align-middle color-fg-default"
   data-view-component="true"
   width="32.700001"
   version="1.1"
   viewBox="0 0 16.35 15.954247"
   aria-hidden="true"
   height="31.908493">
  <metadata
     id="metadata10">
    <rdf:RDF>
      <cc:Work
         rdf:about="">
        <dc:format>image/svg+xml</dc:format>
        <dc:type
           rdf:resource="http://purl.org/dc/dcmitype/StillImage" />
        <dc:title></dc:title>
      </cc:Work>
    </rdf:RDF>
  </metadata>
  <defs
     id="defs8" />
  <path
     style="stroke:#ffffff;stroke-width:0.34999999;stroke-miterlimit:4;stroke-dasharray:none;stroke-opacity:1"
     id="path2"
     d="m 8.1750011,0.175 c 4.4199999,0 7.9999999,3.58 7.9999999,8 a 8.013,8.013 0 0 1 -5.45,7.59 c -0.4,0.08 -0.55,-0.17 -0.55,-0.38 0,-0.27 0.01,-1.13 0.01,-2.2 0,-0.75 -0.2499999,-1.23 -0.5399999,-1.48 1.7799999,-0.2 3.6499999,-0.88 3.6499999,-3.95 0,-0.88 -0.31,-1.59 -0.82,-2.15 0.08,-0.2 0.36,-1.02 -0.08,-2.12 0,0 -0.67,-0.22 -2.2,0.82 -0.6399999,-0.18 -1.3199999,-0.27 -1.9999999,-0.27 -0.68,0 -1.36,0.09 -2,0.27 -1.53,-1.03 -2.2,-0.82 -2.2,-0.82 -0.44,1.1 -0.16,1.92 -0.08,2.12 -0.51,0.56 -0.82,1.28 -0.82,2.15 0,3.06 1.86,3.75 3.64,3.95 -0.23,0.2 -0.44,0.55 -0.51,1.07 -0.46,0.21 -1.61,0.55 -2.33,-0.66 -0.15,-0.24 -0.6,-0.83 -1.23,-0.82 -0.67,0.01 -0.27,0.38 0.01,0.53 0.34,0.19 0.73,0.9 0.82,1.13 0.16,0.45 0.68,1.31 2.69,0.94 0,0.67 0.01,1.3 0.01,1.49 0,0.21 -0.15,0.45 -0.55,0.38 A 7.995,7.995 0 0 1 0.17500111,8.175 c 0,-4.42 3.57999999,-8 7.99999999,-8 z" />
</svg>
