<?xml version="1.0" encoding="UTF-8" standalone="no"?>
<svg
   xmlns:dc="http://purl.org/dc/elements/1.1/"
   xmlns:cc="http://creativecommons.org/ns#"
   xmlns:rdf="http://www.w3.org/1999/02/22-rdf-syntax-ns#"
   xmlns:svg="http://www.w3.org/2000/svg"
   xmlns="http://www.w3.org/2000/svg"
   id="svg8"
   version="1.1"
   focusable="false"
   height="32"
   width="32"
   data-supported-dps="21x21"
   viewBox="0 0 32 32">
  <metadata
     id="metadata14">
    <rdf:RDF>
      <cc:Work
         rdf:about="">
        <dc:format>image/svg+xml</dc:format>
        <dc:type
           rdf:resource="http://purl.org/dc/dcmitype/StillImage" />
        <dc:title></dc:title>
      </cc:Work>
    </rdf:RDF>
  </metadata>
  <defs
     id="defs12" />
  <g
     style="fill:none;fill-rule:evenodd"
     id="g6"
     transform="scale(0.66666667)">
    <rect
       style="fill:#ffffff"
       id="rect2"
       rx="4"
       height="46"
       width="46"
       y="1"
       x="1"
       class="bug-text-color" />
    <path
       style="fill:#0077b5"
       id="path4"
       class="background"
       d="M 0,4.01 A 4.01,4.01 0 0 1 4.01,0 H 43.99 A 4.01,4.01 0 0 1 48,4.01 V 43.99 A 4.01,4.01 0 0 1 43.99,48 H 4.01 A 4.01,4.01 0 0 1 0,43.99 Z M 19,18.3 h 6.5 v 3.266 C 26.437,19.688 28.838,18 32.445,18 39.359,18 41,21.738 41,28.597 V 41.3 H 34 V 30.159 C 34,26.253 33.063,24.05 30.68,24.05 27.375,24.05 26,26.425 26,30.159 V 41.3 H 19 Z M 7,41 h 7 V 18 H 7 Z m 8,-30.5 a 4.5,4.5 0 1 1 -9,0 4.5,4.5 0 0 1 9,0 z" />
  </g>
</svg>
