<?xml version="1.0" encoding="UTF-8" standalone="no"?>
<svg
   xmlns:dc="http://purl.org/dc/elements/1.1/"
   xmlns:cc="http://creativecommons.org/ns#"
   xmlns:rdf="http://www.w3.org/1999/02/22-rdf-syntax-ns#"
   xmlns:svg="http://www.w3.org/2000/svg"
   xmlns="http://www.w3.org/2000/svg"
   xmlns:sodipodi="http://sodipodi.sourceforge.net/DTD/sodipodi-0.dtd"
   xmlns:inkscape="http://www.inkscape.org/namespaces/inkscape"
   width="12.7mm"
   height="12.7mm"
   viewBox="0 0 12.7 12.7"
   version="1.1"
   id="svg8"
   sodipodi:docname="no-user.svg"
   inkscape:version="0.92.3 (2405546, 2018-03-11)">
  <sodipodi:namedview
     pagecolor="#ffffff"
     bordercolor="#666666"
     borderopacity="1"
     objecttolerance="10"
     gridtolerance="10"
     guidetolerance="10"
     inkscape:pageopacity="0"
     inkscape:pageshadow="2"
     inkscape:window-width="1373"
     inkscape:window-height="836"
     id="namedview10"
     showgrid="false"
     inkscape:zoom="6.3782828"
     inkscape:cx="22.857982"
     inkscape:cy="9.4855191"
     inkscape:window-x="67"
     inkscape:window-y="27"
     inkscape:window-maximized="1"
     inkscape:current-layer="g930"
     fit-margin-top="0"
     fit-margin-left="0"
     fit-margin-right="0"
     fit-margin-bottom="0" />
  <defs
     id="defs2" />
  <metadata
     id="metadata5">
    <rdf:RDF>
      <cc:Work
         rdf:about="">
        <dc:format>image/svg+xml</dc:format>
        <dc:type
           rdf:resource="http://purl.org/dc/dcmitype/StillImage" />
        <dc:title></dc:title>
      </cc:Work>
    </rdf:RDF>
  </metadata>
  <g
     id="g930"
     transform="matrix(1.8867227,0.13621783,0,1.8795981,-4.7792546,-3.6730321)">
    <rect
       style="opacity:1;fill:#d8d8e3;fill-opacity:1;stroke:none;stroke-width:0.11587211;stroke-miterlimit:4;stroke-dasharray:none;stroke-opacity:1"
       id="rect946"
       width="6.7489023"
       height="6.7567635"
       x="2.539742"
       y="1.9541582"
       transform="matrix(0.99738422,-0.0722822,0,1,0,0)" />
    <g
       aria-label="?"
       transform="matrix(0.11994388,-0.00869253,-0.01063266,0.1211691,6.3658674,3.4751585)"
       style="font-style:normal;font-weight:normal;font-size:40px;line-height:1.25;font-family:sans-serif;letter-spacing:0px;word-spacing:0px;fill:#000000;fill-opacity:1;stroke:#0c0c0c;stroke-opacity:1"
       id="flowRoot1013">
      <path
         d="m 4.2109375,3.4511719 q 0,3.1640625 -1.7578125,4.8046875 -1.7578125,1.6210937 -5.0976563,1.8359376 l -0.15625,4.804687 H -5.7109375 L -5.9648437,7.4160156 h 2.2851562 q 1.1914062,0 1.9921875,-0.2539062 0.80078125,-0.2539063 1.2890625,-0.7226563 0.48828125,-0.46875 0.703125,-1.1328125 0.21484375,-0.6835937 0.21484375,-1.5234375 0,-1.4257812 -0.5859375,-2.5390625 Q -0.65234375,0.13085937 -1.7070312,-0.63085937 -2.7617188,-1.3925781 -4.2265625,-1.7832031 -5.671875,-2.1738281 -7.390625,-2.1738281 h -0.4882812 v -3.046875 h 0.5273437 q 1.9726563,0 3.59375,0.3710937 1.640625,0.3710938 2.91015625,1.015625 1.2890625,0.625 2.22656245,1.484375 0.9570313,0.859375 1.5820313,1.81640628 0.6445313,0.95703125 0.9375,1.99218752 0.3125,1.015625 0.3125,1.9921875 z M -4.2851562,17.572266 q 0.5468749,0 1.0156249,0.214843 0.46875,0.195313 0.8007813,0.546875 0.3515625,0.351563 0.546875,0.839844 0.1953125,0.46875 0.1953125,0.996094 0,0.527344 -0.1953125,0.996094 -0.1953125,0.46875 -0.546875,0.820312 -0.3320313,0.332031 -0.8007813,0.527344 -0.46875,0.214844 -1.0156249,0.214844 -0.5273438,0 -0.9960938,-0.214844 Q -5.75,22.318359 -6.1015625,21.986328 -6.453125,21.634766 -6.6484375,21.166016 -6.84375,20.697266 -6.84375,20.169922 q 0,-0.527344 0.1953125,-0.996094 0.1953125,-0.488281 0.546875,-0.839844 Q -5.75,17.982422 -5.28125,17.787109 -4.8125,17.572266 -4.2851562,17.572266 Z"
         style="font-style:normal;font-variant:normal;font-weight:normal;font-stretch:normal;font-family:Consolas;-inkscape-font-specification:Consolas;stroke:#0c0c0c;stroke-opacity:1"
         id="path1021"
         inkscape:connector-curvature="0" />
    </g>
  </g>
</svg>
